# xmcd CD database file
#
# Track frame offsets:
#	180
#	14597
#	33637
#	60847
#	78802
#	86600
#	102750
#	122512
#	137317
#	153425
#
# Disc length: 2252 seconds
#
# Revision: 0
# Processed by: cddbd v1.5PL3 Copyright (c) Steve Scherf et al.
# Submitted via: CDex 1.60beta1
#
DISCID=6a08ca0a
DTITLE=Robert W. Turley - RobOnBass Straight From The Street!
DYEAR=1992
DGENRE=Jazz
TTITLE0=Bass
TTITLE1=Peace
TTITLE2=Smooth
TTITLE3=Come Go With Me
TTITLE4=Up Front
TTITLE5=Now Hear This
TTITLE6=Passin' Thru
TTITLE7=Wiggle
TTITLE8=Cellar Dweller
TTITLE9=June Sixteen
EXTD=YEAR: 1992
EXTT0=
EXTT1=
EXTT2=
EXTT3=
EXTT4=
EXTT5=
EXTT6=
EXTT7=
EXTT8=
EXTT9=
PLAYORDER=
